General
Complete name : WWE SUPERSTARS 07 01 2010
Format : AVI
Format/Info : Audio Video Interleave
File size : 444 MiB
Duration : 38mn 56s

Video
Format : AVI
Format profile : Baseline@L1.3
Codec ID : H264
Duration : 38mn 56s
Bit rate : 1 262 Kbps
Nominal bit rate : 1 147 Kbps
Width : 720 pixels
Height : 576 pixels
Display aspect ratio : 5:4
Frame rate : 29.970 fps
Standard : PAL
Resolution : 24 bits
Colorimetry : 4:2:0
Scan type : Progressive
Bits/(Pixel*Frame) : 0.102
Stream size : 351 MiB (79%)


Audio
Format : MPEG Audio
Format version : Version 1
Format profile : Layer 3
Format_Settings_Mode : Joint stereo / MS Stereo
Codec ID : 55
Codec ID/Hint : MP3
Duration : 38mn 54s
Bit rate mode : Constant
Bit rate : 320 Kbps
Channel(s) : 2 channels
Sampling rate : 44.1 KHz
Resolution : 16 bits
Stream size : 89.0 MiB (20%)
Alignment : Aligned on interleaves
Interleave, duration : 26 ms (0.78 video frame)
Writing library : LAME3.97
